<mxfile host="app.diagrams.net" modified="2023-03-23T10:38:22.678Z" agent="5.0 (Windows NT 10.0; Win64; x64) AppleWebKit/537.36 (KHTML, like Gecko) Chrome/111.0.0.0 Safari/537.36 Edg/111.0.1661.44" etag="4Gpb3b0nGI8XkKLgfw0N" version="21.0.10" type="github">
  <diagram name="페이지-1" id="RUyc2Q7VVCUn38qS7GnB">
    <mxGraphModel dx="1623" dy="1314" grid="1" gridSize="10" guides="1" tooltips="1" connect="1" arrows="1" fold="1" page="1" pageScale="1" pageWidth="827" pageHeight="1169" math="0" shadow="0">
      <root>
        <mxCell id="0" />
        <mxCell id="1" parent="0" />
        <mxCell id="3NGBtrKvB-5Wj472oprQ-4" value="" style="fillColor=#10739E;strokeColor=none;opacity=30;fontFamily=Courier New;" parent="1" vertex="1">
          <mxGeometry x="70" y="210" width="213" height="100" as="geometry" />
        </mxCell>
        <mxCell id="3NGBtrKvB-5Wj472oprQ-6" value="FileRepository&#xa;( 파일 관리 )" style="rounded=1;fillColor=#23445D;gradientColor=none;strokeColor=none;fontColor=#FFFFFF;fontStyle=1;fontFamily=Courier New;fontSize=14" parent="1" vertex="1">
          <mxGeometry x="80" y="220" width="190" height="80" as="geometry" />
        </mxCell>
        <mxCell id="3NGBtrKvB-5Wj472oprQ-12" value="" style="edgeStyle=elbowEdgeStyle;elbow=horizontal;strokeWidth=2;rounded=0;fontFamily=Courier New;entryX=0;entryY=0.5;entryDx=0;entryDy=0;" parent="1" source="3NGBtrKvB-5Wj472oprQ-6" edge="1" target="LiMFixPkiIBG6aPx5YbL-1">
          <mxGeometry x="-50" y="20" width="100" height="100" as="geometry">
            <mxPoint x="-50" y="120" as="sourcePoint" />
            <mxPoint x="210" y="487.25" as="targetPoint" />
            <Array as="points">
              <mxPoint x="175" y="320" />
            </Array>
          </mxGeometry>
        </mxCell>
        <mxCell id="3NGBtrKvB-5Wj472oprQ-13" value="" style="edgeStyle=elbowEdgeStyle;elbow=horizontal;strokeWidth=2;rounded=0;fontFamily=Courier New;entryX=0;entryY=0.5;entryDx=0;entryDy=0;" parent="1" source="3NGBtrKvB-5Wj472oprQ-6" target="LiMFixPkiIBG6aPx5YbL-3" edge="1">
          <mxGeometry x="-50" y="20" width="100" height="100" as="geometry">
            <mxPoint x="-50" y="120" as="sourcePoint" />
            <mxPoint x="215" y="710" as="targetPoint" />
            <Array as="points">
              <mxPoint x="175" y="360" />
            </Array>
          </mxGeometry>
        </mxCell>
        <mxCell id="LiMFixPkiIBG6aPx5YbL-1" value="" style="fillColor=#F2931E;strokeColor=none;opacity=30;fontFamily=Courier New;" vertex="1" parent="1">
          <mxGeometry x="210" y="340" width="630" height="310" as="geometry" />
        </mxCell>
        <mxCell id="LiMFixPkiIBG6aPx5YbL-2" value="c_id  &lt; Long : bigint &gt;                    :: 노드 아이디&#xa;c_parentid  &lt; Long : bigint &gt;              :: 부모 노드 아이디&#xa;c_position  &lt; Long : bigint &gt;              :: 노드 포지션&#xa;c_left &lt; Long : bigint &gt;                   :: 노드 좌측 끝 좌표&#xa;c_right &lt; Long : bigint &gt;                  :: 노드 우측 끝 좌표&#xa;c_level &lt; Long : bigint &gt;                  :: 노드 깊이&#xa;c_title &lt; String : varchar(255) &gt;          :: 노드 명&#xa;c_type &lt; String : varchar(255) &gt;           :: 노드 타입&#xa;&#xa;------------------------------  Log Type  ----------------------------------&#xa;&#xa;c_method &lt; String : varchar(255) &gt;         :: 노드 변경 행위&#xa;c_state &lt; String : varchar(255) &gt;          :: 노드 이전 이후 상태값&#xa;c_date &lt; Date : date &gt;                     :: 노드 변경 시점" style="rounded=1;fillColor=#23445D;gradientColor=none;strokeColor=none;fontColor=#FFFFFF;fontStyle=0;fontFamily=Courier New;fontSize=13;align=left;spacing=4;textDirection=ltr;" vertex="1" parent="1">
          <mxGeometry x="225" y="350" width="600" height="284.5" as="geometry" />
        </mxCell>
        <mxCell id="LiMFixPkiIBG6aPx5YbL-3" value="" style="fillColor=#F2931E;strokeColor=none;opacity=30;fontFamily=Courier New;" vertex="1" parent="1">
          <mxGeometry x="210" y="670" width="630" height="220" as="geometry" />
        </mxCell>
        <mxCell id="LiMFixPkiIBG6aPx5YbL-4" value="C_FILE_ID_LINK &lt; Long : bigint &gt;&#xa;C_FILE_NAME &lt; String : longtext &gt;&#xa;C_CONTENT_TYPE &lt; String : text &gt;&#xa;C_SERVER_SUB_PATH &lt; String : text &gt;&#xa;C_PHYSICAL_NAME &lt; String : text &gt;&#xa;C_SIZE &lt; Long : bigint &gt;&#xa;C_NAME &lt; String : text &gt;&#xa;C_URL &lt; String : text &gt;&#xa;C_THUMBNAIL_URL &lt; String : text &gt;&#xa;C_DELETE_URL &lt; String : text &gt;&#xa;C_DELETE_TYPE &lt; String : text &gt;" style="rounded=0;fillColor=#23445D;gradientColor=none;strokeColor=none;fontColor=#FFFFFF;fontStyle=0;fontFamily=Courier New;fontSize=14;align=left;" vertex="1" parent="1">
          <mxGeometry x="225" y="680" width="600" height="200" as="geometry" />
        </mxCell>
        <mxCell id="LiMFixPkiIBG6aPx5YbL-5" value="" style="fillColor=#10739E;strokeColor=none;opacity=30;fontFamily=Courier New;" vertex="1" parent="1">
          <mxGeometry x="940" y="200" width="213" height="100" as="geometry" />
        </mxCell>
        <mxCell id="LiMFixPkiIBG6aPx5YbL-6" value="PdService&#xa;( 제품, 서비스 )" style="rounded=1;fillColor=#23445D;gradientColor=none;strokeColor=none;fontColor=#FFFFFF;fontStyle=1;fontFamily=Courier New;fontSize=14" vertex="1" parent="1">
          <mxGeometry x="950" y="210" width="190" height="80" as="geometry" />
        </mxCell>
        <mxCell id="LiMFixPkiIBG6aPx5YbL-7" value="" style="edgeStyle=elbowEdgeStyle;elbow=horizontal;strokeWidth=2;rounded=0;fontFamily=Courier New;entryX=0;entryY=0.5;entryDx=0;entryDy=0;" edge="1" parent="1" source="LiMFixPkiIBG6aPx5YbL-6" target="LiMFixPkiIBG6aPx5YbL-9">
          <mxGeometry x="820" y="10" width="100" height="100" as="geometry">
            <mxPoint x="820" y="110" as="sourcePoint" />
            <mxPoint x="1080" y="477.25" as="targetPoint" />
            <Array as="points">
              <mxPoint x="1045" y="310" />
            </Array>
          </mxGeometry>
        </mxCell>
        <mxCell id="LiMFixPkiIBG6aPx5YbL-8" value="" style="edgeStyle=elbowEdgeStyle;elbow=horizontal;strokeWidth=2;rounded=0;fontFamily=Courier New;entryX=0;entryY=0.5;entryDx=0;entryDy=0;" edge="1" parent="1" source="LiMFixPkiIBG6aPx5YbL-6" target="LiMFixPkiIBG6aPx5YbL-11">
          <mxGeometry x="820" y="10" width="100" height="100" as="geometry">
            <mxPoint x="820" y="110" as="sourcePoint" />
            <mxPoint x="1085" y="700" as="targetPoint" />
            <Array as="points">
              <mxPoint x="1045" y="350" />
            </Array>
          </mxGeometry>
        </mxCell>
        <mxCell id="LiMFixPkiIBG6aPx5YbL-9" value="" style="fillColor=#F2931E;strokeColor=none;opacity=30;fontFamily=Courier New;" vertex="1" parent="1">
          <mxGeometry x="1080" y="330" width="630" height="310" as="geometry" />
        </mxCell>
        <mxCell id="LiMFixPkiIBG6aPx5YbL-10" value="c_id  &lt; Long : bigint &gt;                    :: 노드 아이디&#xa;c_parentid  &lt; Long : bigint &gt;              :: 부모 노드 아이디&#xa;c_position  &lt; Long : bigint &gt;              :: 노드 포지션&#xa;c_left &lt; Long : bigint &gt;                   :: 노드 좌측 끝 좌표&#xa;c_right &lt; Long : bigint &gt;                  :: 노드 우측 끝 좌표&#xa;c_level &lt; Long : bigint &gt;                  :: 노드 깊이&#xa;c_title &lt; String : varchar(255) &gt;          :: 노드 명&#xa;c_type &lt; String : varchar(255) &gt;           :: 노드 타입&#xa;&#xa;------------------------------  Log Type  ----------------------------------&#xa;&#xa;c_method &lt; String : varchar(255) &gt;         :: 노드 변경 행위&#xa;c_state &lt; String : varchar(255) &gt;          :: 노드 이전 이후 상태값&#xa;c_date &lt; Date : date &gt;                     :: 노드 변경 시점" style="rounded=1;fillColor=#23445D;gradientColor=none;strokeColor=none;fontColor=#FFFFFF;fontStyle=0;fontFamily=Courier New;fontSize=13;align=left;spacing=4;textDirection=ltr;" vertex="1" parent="1">
          <mxGeometry x="1095" y="340" width="600" height="284.5" as="geometry" />
        </mxCell>
        <mxCell id="LiMFixPkiIBG6aPx5YbL-11" value="" style="fillColor=#F2931E;strokeColor=none;opacity=30;fontFamily=Courier New;" vertex="1" parent="1">
          <mxGeometry x="1080" y="660" width="630" height="280" as="geometry" />
        </mxCell>
        <mxCell id="LiMFixPkiIBG6aPx5YbL-12" value="c_contents &lt; String : longtext &gt;&#xa;c_etc &lt; String : text &gt;&#xa;&#xa;c_owner &lt; String : text &gt;&#xa;c_reviewer01 &lt; String : text &gt;&#xa;c_reviewer02 &lt; String : text &gt;&#xa;c_reviewer03 &lt; String : text &gt;&#xa;c_reviewer04 &lt; String : text &gt;&#xa;c_reviewer05 &lt; String : text &gt;&#xa;c_writer_name &lt; String : text &gt;&#xa;c_writer_cn &lt; String : text &gt;&#xa;c_writer_mail &lt; String : text &gt;&#xa;c_writer_date &lt; String : text &gt;&#xa;c_fileid_link &lt; String : text &gt;" style="rounded=0;fillColor=#23445D;gradientColor=none;strokeColor=none;fontColor=#FFFFFF;fontStyle=0;fontFamily=Courier New;fontSize=14;align=left;" vertex="1" parent="1">
          <mxGeometry x="1095" y="670" width="600" height="260" as="geometry" />
        </mxCell>
        <mxCell id="LiMFixPkiIBG6aPx5YbL-13" value="" style="fillColor=#10739E;strokeColor=none;opacity=30;fontFamily=Courier New;" vertex="1" parent="1">
          <mxGeometry x="1790" y="200" width="213" height="100" as="geometry" />
        </mxCell>
        <mxCell id="LiMFixPkiIBG6aPx5YbL-14" value="PdServiceVersion&#xa;( 제품, 서비스 버전 )" style="rounded=1;fillColor=#23445D;gradientColor=none;strokeColor=none;fontColor=#FFFFFF;fontStyle=1;fontFamily=Courier New;fontSize=14" vertex="1" parent="1">
          <mxGeometry x="1800" y="210" width="190" height="80" as="geometry" />
        </mxCell>
        <mxCell id="LiMFixPkiIBG6aPx5YbL-15" value="" style="edgeStyle=elbowEdgeStyle;elbow=horizontal;strokeWidth=2;rounded=0;fontFamily=Courier New;entryX=0;entryY=0.5;entryDx=0;entryDy=0;" edge="1" parent="1" source="LiMFixPkiIBG6aPx5YbL-14" target="LiMFixPkiIBG6aPx5YbL-17">
          <mxGeometry x="1670" y="10" width="100" height="100" as="geometry">
            <mxPoint x="1670" y="110" as="sourcePoint" />
            <mxPoint x="1930" y="477.25" as="targetPoint" />
            <Array as="points">
              <mxPoint x="1895" y="310" />
            </Array>
          </mxGeometry>
        </mxCell>
        <mxCell id="LiMFixPkiIBG6aPx5YbL-16" value="" style="edgeStyle=elbowEdgeStyle;elbow=horizontal;strokeWidth=2;rounded=0;fontFamily=Courier New;entryX=0;entryY=0.5;entryDx=0;entryDy=0;" edge="1" parent="1" source="LiMFixPkiIBG6aPx5YbL-14" target="LiMFixPkiIBG6aPx5YbL-19">
          <mxGeometry x="1670" y="10" width="100" height="100" as="geometry">
            <mxPoint x="1670" y="110" as="sourcePoint" />
            <mxPoint x="1935" y="700" as="targetPoint" />
            <Array as="points">
              <mxPoint x="1895" y="350" />
            </Array>
          </mxGeometry>
        </mxCell>
        <mxCell id="LiMFixPkiIBG6aPx5YbL-17" value="" style="fillColor=#F2931E;strokeColor=none;opacity=30;fontFamily=Courier New;" vertex="1" parent="1">
          <mxGeometry x="1930" y="330" width="630" height="310" as="geometry" />
        </mxCell>
        <mxCell id="LiMFixPkiIBG6aPx5YbL-18" value="c_id  &lt; Long : bigint &gt;                    :: 노드 아이디&#xa;c_parentid  &lt; Long : bigint &gt;              :: 부모 노드 아이디&#xa;c_position  &lt; Long : bigint &gt;              :: 노드 포지션&#xa;c_left &lt; Long : bigint &gt;                   :: 노드 좌측 끝 좌표&#xa;c_right &lt; Long : bigint &gt;                  :: 노드 우측 끝 좌표&#xa;c_level &lt; Long : bigint &gt;                  :: 노드 깊이&#xa;c_title &lt; String : varchar(255) &gt;          :: 노드 명&#xa;c_type &lt; String : varchar(255) &gt;           :: 노드 타입&#xa;&#xa;------------------------------  Log Type  ----------------------------------&#xa;&#xa;c_method &lt; String : varchar(255) &gt;         :: 노드 변경 행위&#xa;c_state &lt; String : varchar(255) &gt;          :: 노드 이전 이후 상태값&#xa;c_date &lt; Date : date &gt;                     :: 노드 변경 시점" style="rounded=1;fillColor=#23445D;gradientColor=none;strokeColor=none;fontColor=#FFFFFF;fontStyle=0;fontFamily=Courier New;fontSize=13;align=left;spacing=4;textDirection=ltr;" vertex="1" parent="1">
          <mxGeometry x="1945" y="340" width="600" height="284.5" as="geometry" />
        </mxCell>
        <mxCell id="LiMFixPkiIBG6aPx5YbL-19" value="" style="fillColor=#F2931E;strokeColor=none;opacity=30;fontFamily=Courier New;" vertex="1" parent="1">
          <mxGeometry x="1930" y="660" width="630" height="160" as="geometry" />
        </mxCell>
        <mxCell id="LiMFixPkiIBG6aPx5YbL-20" value="c_pdservice_link &lt; Long : bigint &gt;&#xa;&#xa;c_contents &lt; String : longtext &gt;&#xa;c_etc &lt; String : text &gt;&#xa;&#xa;c_start_date &lt; String : text &gt;&#xa;c_end_date &lt; String : text &gt;" style="rounded=0;fillColor=#23445D;gradientColor=none;strokeColor=none;fontColor=#FFFFFF;fontStyle=0;fontFamily=Courier New;fontSize=14;align=left;" vertex="1" parent="1">
          <mxGeometry x="1945" y="670" width="600" height="140" as="geometry" />
        </mxCell>
        <mxCell id="LiMFixPkiIBG6aPx5YbL-21" value="" style="fillColor=#10739E;strokeColor=none;opacity=30;fontFamily=Courier New;" vertex="1" parent="1">
          <mxGeometry x="2650" y="190" width="213" height="100" as="geometry" />
        </mxCell>
        <mxCell id="LiMFixPkiIBG6aPx5YbL-22" value="PdServiceVersion&#xa;( 제품, 서비스 버전 )" style="rounded=1;fillColor=#23445D;gradientColor=none;strokeColor=none;fontColor=#FFFFFF;fontStyle=1;fontFamily=Courier New;fontSize=14" vertex="1" parent="1">
          <mxGeometry x="2660" y="200" width="190" height="80" as="geometry" />
        </mxCell>
        <mxCell id="LiMFixPkiIBG6aPx5YbL-23" value="" style="edgeStyle=elbowEdgeStyle;elbow=horizontal;strokeWidth=2;rounded=0;fontFamily=Courier New;entryX=0;entryY=0.5;entryDx=0;entryDy=0;" edge="1" parent="1" source="LiMFixPkiIBG6aPx5YbL-22" target="LiMFixPkiIBG6aPx5YbL-25">
          <mxGeometry x="2530" width="100" height="100" as="geometry">
            <mxPoint x="2530" y="100" as="sourcePoint" />
            <mxPoint x="2790" y="467.25" as="targetPoint" />
            <Array as="points">
              <mxPoint x="2755" y="300" />
            </Array>
          </mxGeometry>
        </mxCell>
        <mxCell id="LiMFixPkiIBG6aPx5YbL-24" value="" style="edgeStyle=elbowEdgeStyle;elbow=horizontal;strokeWidth=2;rounded=0;fontFamily=Courier New;entryX=0;entryY=0.5;entryDx=0;entryDy=0;" edge="1" parent="1" source="LiMFixPkiIBG6aPx5YbL-22" target="LiMFixPkiIBG6aPx5YbL-27">
          <mxGeometry x="2530" width="100" height="100" as="geometry">
            <mxPoint x="2530" y="100" as="sourcePoint" />
            <mxPoint x="2795" y="690" as="targetPoint" />
            <Array as="points">
              <mxPoint x="2755" y="340" />
            </Array>
          </mxGeometry>
        </mxCell>
        <mxCell id="LiMFixPkiIBG6aPx5YbL-25" value="" style="fillColor=#F2931E;strokeColor=none;opacity=30;fontFamily=Courier New;" vertex="1" parent="1">
          <mxGeometry x="2790" y="320" width="630" height="310" as="geometry" />
        </mxCell>
        <mxCell id="LiMFixPkiIBG6aPx5YbL-26" value="c_id  &lt; Long : bigint &gt;                    :: 노드 아이디&#xa;c_parentid  &lt; Long : bigint &gt;              :: 부모 노드 아이디&#xa;c_position  &lt; Long : bigint &gt;              :: 노드 포지션&#xa;c_left &lt; Long : bigint &gt;                   :: 노드 좌측 끝 좌표&#xa;c_right &lt; Long : bigint &gt;                  :: 노드 우측 끝 좌표&#xa;c_level &lt; Long : bigint &gt;                  :: 노드 깊이&#xa;c_title &lt; String : varchar(255) &gt;          :: 노드 명&#xa;c_type &lt; String : varchar(255) &gt;           :: 노드 타입&#xa;&#xa;------------------------------  Log Type  ----------------------------------&#xa;&#xa;c_method &lt; String : varchar(255) &gt;         :: 노드 변경 행위&#xa;c_state &lt; String : varchar(255) &gt;          :: 노드 이전 이후 상태값&#xa;c_date &lt; Date : date &gt;                     :: 노드 변경 시점" style="rounded=1;fillColor=#23445D;gradientColor=none;strokeColor=none;fontColor=#FFFFFF;fontStyle=0;fontFamily=Courier New;fontSize=13;align=left;spacing=4;textDirection=ltr;" vertex="1" parent="1">
          <mxGeometry x="2805" y="330" width="600" height="284.5" as="geometry" />
        </mxCell>
        <mxCell id="LiMFixPkiIBG6aPx5YbL-27" value="" style="fillColor=#F2931E;strokeColor=none;opacity=30;fontFamily=Courier New;" vertex="1" parent="1">
          <mxGeometry x="2790" y="650" width="630" height="160" as="geometry" />
        </mxCell>
        <mxCell id="LiMFixPkiIBG6aPx5YbL-28" value="c_pdservice_link &lt; Long : bigint &gt;&#xa;&#xa;c_contents &lt; String : longtext &gt;&#xa;c_etc &lt; String : text &gt;&#xa;&#xa;c_start_date &lt; String : text &gt;&#xa;c_end_date &lt; String : text &gt;" style="rounded=0;fillColor=#23445D;gradientColor=none;strokeColor=none;fontColor=#FFFFFF;fontStyle=0;fontFamily=Courier New;fontSize=14;align=left;" vertex="1" parent="1">
          <mxGeometry x="2805" y="660" width="600" height="140" as="geometry" />
        </mxCell>
      </root>
    </mxGraphModel>
  </diagram>
</mxfile>
